<svg width="15" height="16" viewBox="0 0 15 16" fill="none" xmlns="http://www.w3.org/2000/svg">
    <path d="M5.70679 0.412421C4.51498 0.487853 3.36239 0.683974 2.68049 0.922338C2.0529 1.14561 1.70893 1.4051 1.55505 1.77622C1.39815 2.14734 1.26238 2.78097 1.17186 3.54735C1.09341 4.19003 1.11151 4.13873 0.951598 4.18399C0.746424 4.24132 0.514096 4.47667 0.450733 4.69089C0.384353 4.92322 0.381336 6.44693 0.447716 6.67323C0.499009 6.84823 0.652889 7.04134 0.806769 7.1228L0.915391 7.18315L0.897287 8.61634C0.876166 10.1039 0.909356 11.6758 0.990822 12.919C1.03608 13.6431 1.06022 13.7577 1.17789 13.8996C1.30462 14.0504 1.41022 14.0776 1.85074 14.0776H2.24298V14.5996C2.24298 15.2181 2.27617 15.3659 2.44514 15.5379C2.5085 15.6013 2.62919 15.6888 2.71066 15.731C2.84945 15.8065 2.89169 15.8125 3.20851 15.8125C3.5917 15.8125 3.69428 15.7793 3.91756 15.5802C4.12575 15.3991 4.14386 15.3297 4.14386 14.6659V14.0776H7.62879H11.1137V14.6237C11.1137 14.9526 11.1288 15.2181 11.1499 15.2875C11.1982 15.4565 11.3611 15.6315 11.5603 15.728C11.7172 15.8065 11.7624 15.8125 12.0642 15.8125C12.4353 15.8125 12.5771 15.7672 12.7792 15.5892C12.9874 15.4082 13.0146 15.2996 13.0146 14.6539V14.0836L13.3555 14.0746C13.7267 14.0625 13.8383 14.0202 13.962 13.8573C14.0254 13.7728 14.0254 13.7698 14.0344 10.484L14.0465 7.19522L14.1611 7.13789C14.318 7.05642 14.487 6.85125 14.5383 6.67323C14.6047 6.44693 14.6017 4.92322 14.5353 4.69089C14.4719 4.47063 14.2396 4.24132 14.0254 4.18097C13.9409 4.15985 13.8715 4.13873 13.8655 4.13572C13.8624 4.1327 13.8323 3.92149 13.7991 3.66502C13.6663 2.64217 13.5094 2.03571 13.2831 1.67665C12.8879 1.04906 11.3038 0.602509 8.83569 0.424491C8.18094 0.376215 6.37059 0.37018 5.70679 0.412421ZM10.9327 2.34045V2.85338H7.43266H3.93265V2.34045V1.82751H7.43266H10.9327V2.34045ZM12.1698 5.96116V8.43531H7.43266H2.69557V5.96116V3.48701H7.43266H12.1698V5.96116ZM4.43653 10.9728C5.17274 11.3258 5.16972 12.3577 4.43351 12.7198C3.99601 12.9371 3.48006 12.7952 3.20247 12.3849C3.06669 12.1858 3.0154 11.9866 3.03652 11.7513C3.06368 11.4375 3.25678 11.1418 3.53739 10.9909C3.83308 10.828 4.12273 10.822 4.43653 10.9728ZM11.346 10.9728C12.0823 11.3258 12.0823 12.3577 11.343 12.7198C11.1922 12.7952 11.1107 12.8164 10.9598 12.8164C10.5042 12.8224 10.1844 12.6082 10.0064 12.1797C9.81931 11.7241 10.0366 11.1961 10.5042 10.9577C10.7547 10.828 11.0564 10.834 11.346 10.9728Z" fill="white"/>
</svg>
