<svg width="66" height="51" viewBox="0 0 66 51" fill="none" xmlns="http://www.w3.org/2000/svg">
    <path d="M7.95258 1.52134C5.72345 3.62998 5.60295 3.93121 3.49432 20.3183C2.95209 24.6561 2.47012 26.4635 1.38568 27.7287C0.18074 29.2349 0 30.0783 0 35.1391C0 40.0191 0.18074 40.983 1.20494 42.0072C1.86765 42.6699 2.77135 43.2121 3.19308 43.2121C3.61481 43.2121 4.57876 44.4171 5.30172 45.9232C6.20542 47.7909 7.28986 48.9356 9.03702 49.8393C11.3866 51.0442 12.2301 51.1045 33.6177 50.9237C55.5476 50.743 55.7283 50.743 57.6562 49.3573C58.6804 48.6343 60.0661 46.9474 60.6083 45.622C61.2108 44.2966 62.0542 43.2121 62.4759 43.2121C62.8977 43.2121 63.8014 42.6699 64.4641 42.0072C65.4883 40.983 65.669 40.0191 65.669 34.9583C65.669 29.9578 65.4883 28.9336 64.4641 27.8492C63.1989 26.5238 62.6567 23.9332 61.4518 14.2937C60.3071 5.0759 59.7648 3.02751 57.7164 1.3406C56.6923 0.497147 55.5476 -0.105324 55.1861 0.0151711C54.7644 0.135662 54.4029 3.02751 54.2221 7.9075C53.9209 15.5588 53.9209 15.6191 52.7762 14.3539C50.7881 12.185 45.9683 9.41367 41.5101 7.9075C35.9673 6.03985 30.0029 5.97961 24.6409 7.72676C19.8212 9.29318 19.0982 9.71491 15.3027 12.5465C13.6158 13.8719 12.0494 14.8961 11.8686 14.8961C11.6276 14.8961 11.3866 11.5826 11.3264 7.54602C11.2059 2.90702 10.9047 0.135662 10.4829 0.0151711C10.1215 -0.105324 8.97678 0.557392 7.95258 1.52134ZM40.1846 8.63047C43.438 9.59441 43.4982 9.65466 43.1367 11.4621C42.474 14.7756 42.1728 14.8961 32.8345 14.8961C23.4963 14.8961 23.195 14.7756 22.5323 11.4018C22.1708 9.65466 22.2913 9.53417 25.0627 8.69071C29.039 7.48577 36.1481 7.42553 40.1846 8.63047ZM29.8824 23.4512L32.714 24.6561L36.0878 23.2704C41.9318 20.8003 45.8478 21.6438 49.0409 25.9815C50.1254 27.3672 50.3061 28.5119 50.3061 33.2714C50.3061 38.3924 50.1856 39.1154 48.9204 40.3203C47.595 41.6457 47.2335 41.706 33.3767 41.8867L19.2187 42.0674L17.1703 40.0191C15.1822 38.0309 15.0617 37.7297 15.0617 33.6329C15.0617 30.5603 15.4232 28.6324 16.2064 27.066C19.038 21.5835 23.195 20.4388 29.8824 23.4512Z" fill="white"/>
    <path d="M21.8101 28.8734C20.063 30.6205 21.6896 33.2111 24.22 32.8497C26.7504 32.4882 26.1479 28.1504 23.5573 28.1504C23.015 28.1504 22.2318 28.4516 21.8101 28.8734Z" fill="white"/>
    <path d="M40.3649 29.054C39.9432 29.5962 39.7625 30.5601 40.0034 31.4638C40.3649 32.7893 40.6662 33.0303 42.3531 32.8495C43.8592 32.729 44.3412 32.3675 44.4617 31.2831C44.8834 28.6322 41.9916 27.0658 40.3649 29.054Z" fill="white"/>
    <path d="M28.1957 37.1872C29.7018 38.5729 30.726 38.9946 32.7142 38.9946C35.2445 38.9946 39.1606 37.1872 39.1606 35.9823C39.1606 35.0786 38.6786 35.1991 36.329 36.645C34.0396 38.0909 30.726 37.9102 28.9186 36.2835C28.3764 35.8015 27.533 35.3798 27.051 35.3798C26.569 35.3798 27.051 36.163 28.1957 37.1872Z" fill="white"/>
</svg>
