<svg width="14" height="14" viewBox="0 0 14 14" fill="none" xmlns="http://www.w3.org/2000/svg">
    <path d="M0.528159 0.0605927C0.33411 0.137118 0.134595 0.336634 0.0608016 0.536149C-0.0157248 0.741131 -0.0157248 1.01444 0.0608016 1.22489C0.115463 1.37521 0.243918 1.50913 2.92507 4.19028L5.72922 6.9999L2.92507 9.80951C0.243918 12.4907 0.115463 12.6246 0.0608016 12.7749C-0.114116 13.2505 0.101798 13.7779 0.536358 13.9392C0.74134 14.0157 1.01465 14.0157 1.2251 13.9392C1.37542 13.8845 1.50934 13.7561 4.19323 11.0749L7.0001 8.27078L9.80971 11.0749C12.4909 13.7561 12.6248 13.8845 12.7751 13.9392C13.2507 14.1141 13.7782 13.8982 13.9394 13.4636C14.0159 13.2587 14.0159 12.9854 13.9394 12.7749C13.8847 12.6246 13.7563 12.4907 11.0751 9.80951L8.27099 6.9999L11.0751 4.19028C13.7563 1.50913 13.8847 1.37521 13.9394 1.22489C14.0159 1.01444 14.0159 0.741131 13.9394 0.536149C13.7782 0.101588 13.2507 -0.114326 12.7751 0.0605927C12.6248 0.115253 12.4909 0.243709 9.80971 2.92487L7.0001 5.72901L4.19323 2.92487C1.50934 0.243709 1.37542 0.115253 1.2251 0.0605927C1.01738 -0.015934 0.727674 -0.015934 0.528159 0.0605927Z" fill="white"/>
</svg>
