<svg width="23" height="26" viewBox="0 0 23 26" fill="none" xmlns="http://www.w3.org/2000/svg">
    <path d="M10.6347 0.0414886C10.538 0.0720043 10.3448 0.168636 10.2023 0.265268C9.86668 0.483963 0.345842 10.0251 0.22378 10.2591C0.0966324 10.5134 0 10.9101 0 11.1796C0 11.673 0.320413 12.3494 0.691685 12.6291C1.06296 12.9139 1.74447 13.0614 2.20729 12.9546C2.78708 12.8224 2.83286 12.7817 5.80812 9.83696C8.702 6.96342 8.93087 6.70912 9.19025 6.08356C9.27671 5.86486 9.2818 6.12933 9.30723 15.2433L9.33266 24.6268L9.46998 24.9167C9.64798 25.3032 9.95314 25.6186 10.3346 25.8271C10.6397 25.9949 10.6804 26 11.189 26C11.6722 26 11.7485 25.9847 12.0028 25.8576C12.5063 25.5982 12.8572 25.171 12.9996 24.6421C13.0606 24.4132 13.0708 22.8976 13.0708 15.1416V5.91063L13.2183 6.21579C13.2946 6.38363 13.4675 6.65826 13.5947 6.8261C13.7218 6.99393 15.0696 8.37222 16.5903 9.88273C18.7009 11.9883 19.4129 12.6698 19.6062 12.7664C20.5929 13.2547 21.7118 12.9038 22.1797 11.9578C22.4696 11.3678 22.4187 10.6456 22.0474 10.0913C21.9508 9.94377 19.7283 7.68053 17.1039 5.06129C11.7027 -0.334869 12.1147 0.0211449 11.2653 0.000801086C11.0161 -0.00428581 10.7313 0.016058 10.6347 0.0414886Z" fill="white"/>
</svg>
