<svg width="16" height="15" viewBox="0 0 16 15" fill="none" xmlns="http://www.w3.org/2000/svg">
    <path d="M4.96254 0.111748C4.81009 0.142238 4.73387 0.191021 4.6363 0.319077L4.55093 0.42884L4.54179 1.31914L4.53264 2.20943L4.14542 2.22773C3.70942 2.24907 3.52038 2.2948 3.20939 2.4564C2.93194 2.60275 2.5935 2.93203 2.47154 3.179C2.41971 3.27962 2.20933 3.77355 2.00505 4.27663C1.80077 4.7797 1.62393 5.20046 1.61174 5.21266C1.60259 5.22485 1.4227 5.18521 1.21232 5.12729C0.745832 4.99313 0.538503 4.98703 0.334223 5.0907C0.236656 5.14253 0.163481 5.20961 0.099453 5.31327C0.0110332 5.45657 0.00798421 5.47182 -0.00116267 5.89867C-0.0103095 6.30723 -0.00726058 6.34382 0.0628655 6.49322C0.190922 6.77677 0.437887 6.96276 0.727538 6.9963C0.852546 7.01154 0.876937 7.02374 0.858644 7.06337C0.678755 7.49328 0.532405 8.03294 0.431789 8.63664C0.379957 8.94153 0.373859 9.17325 0.373859 11.1673C0.373859 13.5424 0.37081 13.5028 0.541552 13.7345C0.776322 14.0546 1.03853 14.1248 1.91053 14.1034C2.55386 14.0882 2.69412 14.0516 2.8984 13.8412C3.11182 13.6217 3.14536 13.4967 3.15756 12.8503L3.16975 12.2801H7.80112H12.4325V12.829C12.4325 13.2985 12.4416 13.3991 12.4935 13.5363C12.5697 13.7406 12.7343 13.9144 12.9508 14.015C13.1155 14.0943 13.1277 14.0943 13.8198 14.0943C14.5119 14.0943 14.5241 14.0943 14.6887 14.015C14.9052 13.9113 15.0698 13.7406 15.1491 13.5333C15.2101 13.3717 15.2101 13.3198 15.1979 11.0789C15.1887 9.06959 15.1796 8.7525 15.1339 8.49943C15.0576 8.07258 14.9418 7.63658 14.8229 7.32254C14.7649 7.16704 14.7192 7.03593 14.7192 7.02983C14.7192 7.02069 14.7863 7.00544 14.8686 6.9963C15.1583 6.96276 15.4052 6.77677 15.5333 6.49322C15.6034 6.34382 15.6065 6.30723 15.5973 5.89867C15.5882 5.47182 15.5851 5.45657 15.4967 5.31327C15.4327 5.20961 15.3595 5.14253 15.2619 5.0907C15.0576 4.98398 14.8503 4.99313 14.3716 5.13033C14.1582 5.19131 13.9783 5.23705 13.9722 5.23095C13.9692 5.22485 13.7893 4.78885 13.5728 4.26138C13.3594 3.73391 13.1337 3.21864 13.0758 3.11802C12.9478 2.8985 12.6886 2.63629 12.4569 2.49908C12.1581 2.32224 11.8867 2.24907 11.4507 2.22773L11.0635 2.20943L11.0544 1.31914L11.0452 0.42884L10.9598 0.319077C10.78 0.0843077 11.0117 0.0995522 7.8743 0.0934544C6.33152 0.0934544 5.02047 0.0995522 4.96254 0.111748ZM6.57239 0.928869L6.58154 1.05997H6.32238H6.06017V1.63928V2.21858H5.84674H5.63331V1.63928V1.05997H5.37415H5.11499V0.944114C5.11499 0.880086 5.12414 0.816057 5.13633 0.803862C5.14853 0.794715 5.47172 0.788617 5.85893 0.791666L6.56324 0.800813L6.57239 0.928869ZM7.78588 1.50207L8.06638 2.20333L7.89869 2.21248C7.80417 2.21858 7.7127 2.21553 7.69136 2.20638C7.67307 2.20028 7.63648 2.13016 7.61514 2.05394L7.5755 1.91368H7.2645H6.95046L6.89558 2.06613L6.8407 2.21858H6.64862C6.5419 2.21858 6.45653 2.20943 6.45653 2.19419C6.45653 2.16065 6.98095 0.864841 7.01449 0.822156C7.03583 0.794715 7.11511 0.785568 7.2767 0.791666L7.50537 0.800813L7.78588 1.50207ZM8.70666 1.01424C8.78594 1.13925 8.85606 1.24291 8.86521 1.24291C8.87436 1.24291 8.94448 1.13925 9.02375 1.01424L9.16706 0.785568H9.38353H9.59696L9.35304 1.15144C9.21889 1.35267 9.10913 1.53561 9.10913 1.56C9.10913 1.5844 9.20669 1.72465 9.32865 1.87405C9.44756 2.0204 9.56037 2.16065 9.57562 2.17894C9.59696 2.20943 9.55732 2.21858 9.38963 2.21858H9.1762L9.0329 1.98991C8.95668 1.8649 8.88045 1.76123 8.86521 1.76123C8.84996 1.76123 8.77374 1.8649 8.69752 1.98991L8.55421 2.21858H8.34079C8.17309 2.21858 8.13346 2.20943 8.1548 2.17894C8.17005 2.16065 8.28286 2.0204 8.40177 1.87405C8.52372 1.72465 8.62129 1.5844 8.62129 1.56C8.62129 1.53561 8.51153 1.35267 8.37737 1.15144L8.13346 0.785568H8.34689H8.56336L8.70666 1.01424ZM10.2921 1.50817L10.2982 2.21858H10.0848H9.87136V1.52342C9.87136 1.13925 9.88051 0.816057 9.89271 0.803862C9.9049 0.791666 9.99637 0.785568 10.1 0.791666L10.283 0.800813L10.2921 1.50817ZM11.3684 2.96252C11.6763 3.03265 11.9599 3.24913 12.0941 3.51439C12.1276 3.58146 12.4264 4.29492 12.7557 5.09984C13.1429 6.04502 13.3624 6.61518 13.3716 6.70665C13.3868 6.87434 13.335 6.97495 13.1856 7.06642C13.0911 7.1274 12.9874 7.1274 7.80417 7.1274C1.84956 7.1274 2.35568 7.14874 2.24287 6.89568C2.20019 6.79506 2.19409 6.74018 2.21238 6.64872C2.23982 6.52981 3.39843 3.69732 3.50209 3.48999C3.63015 3.24303 3.95029 3.00826 4.24299 2.95033C4.31006 2.93813 5.90467 2.92594 7.78283 2.92289C10.5238 2.91984 11.2312 2.92899 11.3684 2.96252ZM4.804 8.95678C4.94425 9.04825 4.96254 9.15191 4.96254 9.79524C4.96254 10.4538 4.94425 10.5331 4.7796 10.6185C4.64545 10.6886 2.32214 10.6855 2.17274 10.6185C2.002 10.5361 1.98981 10.4782 1.98981 9.77695C1.98981 9.1824 1.99286 9.13971 2.05384 9.05739C2.1697 8.9019 2.22458 8.89885 3.52953 8.90494C4.53874 8.91104 4.74607 8.91714 4.804 8.95678ZM13.3441 8.93543C13.4021 8.95678 13.4783 9.01166 13.5118 9.05739C13.5728 9.13971 13.5758 9.1824 13.5758 9.77695C13.5758 10.4782 13.5637 10.5361 13.3929 10.6185C13.2435 10.6855 10.9202 10.6886 10.7861 10.6185C10.6184 10.5331 10.6031 10.4569 10.6031 9.7739C10.6031 9.24033 10.6092 9.14276 10.6549 9.07873C10.7098 8.99641 10.7678 8.95068 10.8623 8.92019C10.9781 8.8836 13.2313 8.8958 13.3441 8.93543Z" fill="white"/>
    <path d="M7.15483 1.38C7.10604 1.48671 7.06641 1.59038 7.06641 1.60867C7.06641 1.62696 7.15178 1.63916 7.26764 1.63916C7.45667 1.63916 7.46582 1.63611 7.44753 1.57513C7.40789 1.45622 7.27983 1.18182 7.26154 1.18182C7.25239 1.18182 7.20666 1.27024 7.15483 1.38Z" fill="white"/>
</svg>
