<svg width="11" height="18" viewBox="0 0 11 18" fill="none" xmlns="http://www.w3.org/2000/svg">
    <path d="M6.00805 1.02113C5.30901 1.27079 4.92025 1.85928 4.96662 2.59042C5.03438 3.68179 6.18995 4.34161 7.18502 3.85299C7.81273 3.54269 8.16582 2.75092 7.96966 2.08397C7.83413 1.61675 7.58804 1.31716 7.17789 1.11386C6.92466 0.989034 6.87829 0.978334 6.5466 0.967635C6.27198 0.960501 6.14358 0.974768 6.00805 1.02113Z" fill="white"/>
    <path d="M4.79414 4.47355C4.67645 4.52348 4.57658 4.56271 4.57302 4.56271C4.57302 4.56271 3.99523 4.98 3.29262 5.49002C2.59357 6.00004 2.00866 6.42089 1.99439 6.42446C1.95516 6.44229 0.236073 8.82119 0.221806 8.87826C0.20754 8.93889 1.40234 9.8234 1.45584 9.78773C1.47367 9.77703 1.84816 9.27771 2.28328 8.67853C2.95736 7.74766 3.10716 7.56219 3.29262 7.43023C3.41032 7.34107 3.51375 7.28757 3.52088 7.3054C3.52801 7.32323 3.44955 7.80115 3.34612 8.36467C3.13926 9.50597 3.11786 9.8127 3.22129 10.1373C3.34612 10.5224 3.46738 10.6437 4.91897 11.867L6.2921 13.019L7.06604 15.1447C7.49403 16.3145 7.84712 17.274 7.85069 17.2811C7.86496 17.2918 9.25948 16.7818 9.28802 16.7568C9.29871 16.7425 8.92779 15.6868 8.46414 14.4064L7.6153 12.081L6.84848 11.4355C6.42406 11.0824 6.07097 10.7864 6.06741 10.7828C6.06027 10.7792 6.17084 10.1123 6.30993 9.29911L6.57029 7.82612L6.94835 8.20061C7.86139 9.11008 8.99912 9.61297 10.3687 9.7164L10.6968 9.74493V8.96029V8.17564L10.3865 8.15424C9.48418 8.09005 8.63177 7.68702 7.96839 7.00938C7.62243 6.65629 7.51187 6.47439 7.3157 5.91088C7.11954 5.35449 6.95191 5.09413 6.60952 4.81237C6.25643 4.51991 5.85698 4.38439 5.34696 4.38439C5.06877 4.38439 4.9689 4.40222 4.79414 4.47355Z" fill="white"/>
    <path d="M3.14916 12.4165L2.8674 13.2475L2.59991 13.5685C2.45011 13.7432 1.94723 14.346 1.48001 14.9024C1.01279 15.4588 0.627598 15.9331 0.624032 15.9581C0.620465 16.0187 1.7796 16.9888 1.8117 16.9531C1.82596 16.9353 2.37878 16.2755 3.04216 15.4873L4.24053 14.0535L4.52585 13.4294C4.68278 13.087 4.81118 12.7838 4.80761 12.7589C4.80761 12.7196 3.53435 11.6283 3.45588 11.5962C3.44162 11.589 3.30252 11.96 3.14916 12.4165Z" fill="white"/>
</svg>
